<?xml version="1.0" standalone="no"?>
<!DOCTYPE svg PUBLIC "-//W3C//DTD SVG 20010904//EN"
 "http://www.w3.org/TR/2001/REC-SVG-20010904/DTD/svg10.dtd">
<svg version="1.0" xmlns="http://www.w3.org/2000/svg"
 width="1067.000000pt" height="1067.000000pt" viewBox="0 0 1067.000000 1067.000000"
 preserveAspectRatio="xMidYMid meet">

<g transform="translate(0.000000,1067.000000) scale(0.100000,-0.100000)"
fill="#000000" stroke="none">
<path d="M182 9293 c-37 -18 -63 -52 -80 -102 -17 -48 -17 -2423 -1 -2472 14
-40 53 -85 91 -105 23 -12 218 -14 1265 -14 l1238 1 39 27 c22 15 49 45 60 67
21 40 21 45 24 1220 2 649 0 1203 -3 1232 -7 60 -36 108 -84 140 l-34 23
-1241 0 c-1123 0 -1244 -2 -1274 -17z"/>
<path d="M5620 9288 c-18 -13 -43 -36 -54 -51 l-21 -28 -3 -1240 c-3 -1391 -8
-1283 71 -1340 l40 -29 1239 0 c1359 0 1267 -4 1322 60 14 17 30 48 36 68 8
26 10 407 8 1252 l-3 1215 -24 35 c-13 19 -35 44 -50 55 -26 20 -44 20 -1277
23 l-1251 2 -33 -22z"/>
<path d="M2941 6579 c-44 -17 -81 -51 -101 -89 -20 -38 -20 -64 -20 -1245 0
-1313 -3 -1231 54 -1293 49 -54 -8 -52 1310 -51 1366 1 1246 -6 1310 73 l31
38 0 1232 0 1233 -29 37 c-16 21 -47 47 -70 57 -39 18 -90 19 -1251 18 -734 0
-1219 -4 -1234 -10z"/>
<path d="M195 3854 c-45 -23 -66 -45 -86 -89 -18 -38 -19 -97 -19 -1254 l0
-1215 21 -44 c13 -26 38 -54 62 -70 l41 -27 1242 0 1242 0 39 31 c21 17 47 46
58 65 20 34 20 52 20 1259 l0 1225 -22 42 c-15 26 -39 52 -66 68 l-44 25
-1229 0 c-1095 0 -1232 -2 -1259 -16z"/>
<path d="M5632 3853 c-18 -9 -45 -32 -60 -51 l-27 -35 -3 -1246 c-2 -1213 -2
-1247 17 -1277 11 -18 36 -45 57 -60 l37 -29 1242 0 1241 0 41 27 c24 16 49
44 62 70 l21 44 0 1215 c0 1164 -1 1216 -19 1255 -10 23 -36 54 -57 70 l-37
29 -1241 2 c-1134 2 -1244 1 -1274 -14z"/>
</g>
</svg>
